<svg xmlns="http://www.w3.org/2000/svg" viewBox="0 0 1024 1024">
  <defs><linearGradient id="g" x1="0" x2="1" y1="0" y2="1"><stop stop-color="#48c6ef"/><stop offset="1" stop-color="#6f57ff"/></linearGradient></defs>
  <rect width="1024" height="1024" rx="220" fill="url(#g)"/>
  <rect x="196" y="196" width="220" height="220" rx="42" fill="#fff"/><rect x="256" y="256" width="100" height="100" rx="18" fill="#0b1220"/>
  <rect x="608" y="196" width="220" height="220" rx="42" fill="#fff"/><rect x="668" y="256" width="100" height="100" rx="18" fill="#0b1220"/>
  <rect x="196" y="608" width="220" height="220" rx="42" fill="#fff"/><rect x="256" y="668" width="100" height="100" rx="18" fill="#0b1220"/>
  <rect x="492" y="492" width="96" height="96" rx="22" fill="#fff"/><rect x="626" y="492" width="202" height="96" rx="22" fill="#fff"/>
  <rect x="492" y="626" width="96" height="202" rx="22" fill="#fff"/><rect x="626" y="626" width="96" height="96" rx="22" fill="#fff"/>
  <rect x="760" y="760" width="68" height="68" rx="18" fill="#fff"/>
</svg>
